<svg width="19" height="19" viewBox="0 0 19 19" fill="none" xmlns="http://www.w3.org/2000/svg">
<path fill-rule="evenodd" clip-rule="evenodd" d="M9.85859 12.346L15.7332 14.0493L14.271 8.11011L12.4469 9.86123L9.50455 6.79627C9.40467 6.69222 9.26667 6.6334 9.12243 6.6334C8.97819 6.6334 8.84019 6.69222 8.7403 6.79627L6.57983 9.04676L3.40231 5.73685C3.19971 5.52581 2.86439 5.51896 2.65335 5.72156C2.44231 5.92416 2.43546 6.25949 2.63806 6.47053L6.1977 10.1785C6.29759 10.2825 6.43559 10.3414 6.57983 10.3414C6.72407 10.3414 6.86206 10.2825 6.96195 10.1785L9.12243 7.92799L11.6827 10.5949L9.85859 12.346Z" fill="#FF0035"/>
</svg>
