<svg width="19" height="19" viewBox="0 0 19 19" fill="none" xmlns="http://www.w3.org/2000/svg">
<path fill-rule="evenodd" clip-rule="evenodd" d="M10.2846 6.24822L16.1592 4.54492L14.697 10.4841L12.8729 8.73301L9.93058 11.798C9.83069 11.902 9.69269 11.9608 9.54845 11.9608C9.40422 11.9608 9.26622 11.902 9.16633 11.798L7.00585 9.54748L3.82834 12.8574C3.62574 13.0684 3.29041 13.0753 3.07937 12.8727C2.86833 12.6701 2.86149 12.3348 3.06409 12.1237L6.62373 8.41575C6.72362 8.3117 6.86162 8.25288 7.00585 8.25288C7.15009 8.25288 7.28809 8.3117 7.38798 8.41575L9.54845 10.6662L12.1087 7.99933L10.2846 6.24822Z" fill="#41B562"/>
</svg>
