<svg width="24" height="24" viewBox="0 0 24 24" fill="none" xmlns="http://www.w3.org/2000/svg">
<path fill-rule="evenodd" clip-rule="evenodd" d="M17.5556 11.75C14.4878 11.75 12 14.2378 12 17.3056C12 20.3733 14.4878 22.8611 17.5556 22.8611C20.6233 22.8611 23.1111 20.3733 23.1111 17.3056C23.1111 14.2378 20.6233 11.75 17.5556 11.75ZM17.5556 13.9722C18.1689 13.9722 18.6667 14.47 18.6667 15.0833V16.1944H19.7778C20.3911 16.1944 20.8889 16.6922 20.8889 17.3056C20.8889 17.9189 20.3911 18.4167 19.7778 18.4167H18.6667V19.5278C18.6667 20.1411 18.1689 20.6389 17.5556 20.6389C16.9422 20.6389 16.4444 20.1411 16.4444 19.5278V18.4167H15.3333C14.72 18.4167 14.2222 17.9189 14.2222 17.3056C14.2222 16.6922 14.72 16.1944 15.3333 16.1944H16.4444V15.0833C16.4444 14.47 16.9422 13.9722 17.5556 13.9722Z" fill="#FF0035"/>
<path fill-rule="evenodd" clip-rule="evenodd" d="M18.75 2.9375C18.75 2.41992 18.332 2 17.8125 2H3.4375C1.53906 2 0 3.53906 0 5.4375V16.0625C0 17.9609 1.53906 19.5 3.4375 19.5H12.4504C12.2004 18.9194 12.0466 18.2877 12.009 17.625H3.4375C2.57461 17.625 1.875 16.9258 1.875 16.0625V5.4375C1.875 4.57461 2.57461 3.875 3.4375 3.875H17.8125C18.332 3.875 18.75 3.45508 18.75 2.9375ZM18.125 11.7788C18.7919 11.8468 19.424 12.0327 20 12.3155V9.1875C20 7.28906 18.4609 5.75 16.5625 5.75H4.6875C4.16797 5.75 3.75 6.16797 3.75 6.6875C3.75 7.20703 4.16797 7.625 4.6875 7.625H16.5625C17.4258 7.625 18.125 8.32422 18.125 9.1875V11.7788Z" fill="#969FA8"/>
</svg>
