<svg width="24" height="24" viewBox="0 0 24 24" fill="none" xmlns="http://www.w3.org/2000/svg">
<rect width="24" height="24" rx="4" fill="#E9E9E9"/>
<path d="M15.8685 20.1876C18.2539 20.1876 20.1876 18.2538 20.1876 15.8684C20.1876 13.483 18.2539 11.5493 15.8685 11.5493C13.4831 11.5493 11.5493 13.483 11.5493 15.8684C11.5493 18.2538 13.4831 20.1876 15.8685 20.1876Z" fill="#97CF26"/>
<path d="M7.74973 17.8789C8.86008 17.8789 9.7602 16.9787 9.7602 15.8684C9.7602 14.758 8.86008 13.8579 7.74973 13.8579C6.63938 13.8579 5.73926 14.758 5.73926 15.8684C5.73926 16.9787 6.63938 17.8789 7.74973 17.8789Z" fill="#A169F7"/>
<path d="M15.8684 10.5296C17.4038 10.5296 18.6484 9.28494 18.6484 7.74957C18.6484 6.21421 17.4038 4.96954 15.8684 4.96954C14.333 4.96954 13.0884 6.21421 13.0884 7.74957C13.0884 9.28494 14.333 10.5296 15.8684 10.5296Z" fill="#FF6163"/>
<path d="M7.74979 11.2992C9.71017 11.2992 11.2994 9.70999 11.2994 7.7496C11.2994 5.78922 9.71017 4.20001 7.74979 4.20001C5.7894 4.20001 4.2002 5.78922 4.2002 7.7496C4.2002 9.70999 5.7894 11.2992 7.74979 11.2992Z" fill="#00AAFF"/>
</svg>
