<svg width="24" height="24" viewBox="0 0 24 24" fill="none" xmlns="http://www.w3.org/2000/svg">
<rect width="24" height="24" rx="4" fill="#E9E9E9"/>
<g clip-path="url(#clip0_48_203267)">
<path d="M12.3028 4.20001C8.92117 4.20001 7.93215 4.2035 7.73991 4.21945C7.04593 4.27715 6.6141 4.38645 6.14363 4.62074C5.78108 4.80083 5.49513 5.00958 5.21293 5.3022C4.69899 5.83585 4.38751 6.49238 4.27475 7.27279C4.21994 7.65165 4.20399 7.72891 4.20075 9.66411C4.1995 10.3092 4.20075 11.1581 4.20075 12.2968C4.20075 15.6767 4.20448 16.665 4.22068 16.8569C4.27675 17.5324 4.38265 17.9573 4.60692 18.4222C5.03552 19.312 5.85408 19.98 6.81843 20.2293C7.15233 20.3153 7.52113 20.3626 7.99457 20.3851C8.19517 20.3938 10.2397 20.4 12.2855 20.4C14.3313 20.4 16.3771 20.3975 16.5727 20.3876C17.1209 20.3617 17.4393 20.319 17.7912 20.228C18.7618 19.9775 19.5654 19.3195 20.0027 18.4172C20.2227 17.9636 20.3342 17.5224 20.3846 16.8822C20.3956 16.7426 20.4002 14.5172 20.4002 12.2947C20.4002 10.0719 20.3952 7.85055 20.3842 7.71097C20.3332 7.06042 20.2217 6.62299 19.9947 6.16062C19.8084 5.78213 19.6016 5.49948 19.3013 5.21048C18.7654 4.69851 18.1101 4.38695 17.3291 4.27429C16.9507 4.21957 16.8754 4.20337 14.9392 4.20001H12.3028Z" fill="url(#paint0_radial_48_203267)"/>
<path d="M12.3028 4.20001C8.92117 4.20001 7.93215 4.2035 7.73991 4.21945C7.04593 4.27715 6.6141 4.38645 6.14363 4.62074C5.78108 4.80083 5.49513 5.00958 5.21293 5.3022C4.69899 5.83585 4.38751 6.49238 4.27475 7.27279C4.21994 7.65165 4.20399 7.72891 4.20075 9.66411C4.1995 10.3092 4.20075 11.1581 4.20075 12.2968C4.20075 15.6767 4.20448 16.665 4.22068 16.8569C4.27675 17.5324 4.38265 17.9573 4.60692 18.4222C5.03552 19.312 5.85408 19.98 6.81843 20.2293C7.15233 20.3153 7.52113 20.3626 7.99457 20.3851C8.19517 20.3938 10.2397 20.4 12.2855 20.4C14.3313 20.4 16.3771 20.3975 16.5727 20.3876C17.1209 20.3617 17.4393 20.319 17.7912 20.228C18.7618 19.9775 19.5654 19.3195 20.0027 18.4172C20.2227 17.9636 20.3342 17.5224 20.3846 16.8822C20.3956 16.7426 20.4002 14.5172 20.4002 12.2947C20.4002 10.0719 20.3952 7.85055 20.3842 7.71097C20.3332 7.06042 20.2217 6.62299 19.9947 6.16062C19.8084 5.78213 19.6016 5.49948 19.3013 5.21048C18.7654 4.69851 18.1101 4.38695 17.3291 4.27429C16.9507 4.21957 16.8754 4.20337 14.9392 4.20001H12.3028Z" fill="url(#paint1_radial_48_203267)"/>
<path d="M12.3028 4.20001C8.92117 4.20001 7.93215 4.2035 7.73991 4.21945C7.04593 4.27715 6.6141 4.38645 6.14363 4.62074C5.78108 4.80083 5.49513 5.00958 5.21293 5.3022C4.69899 5.83585 4.38751 6.49238 4.27475 7.27279C4.21994 7.65165 4.20399 7.72891 4.20075 9.66411C4.1995 10.3092 4.20075 11.1581 4.20075 12.2968C4.20075 15.6767 4.20448 16.665 4.22068 16.8569C4.27675 17.5324 4.38265 17.9573 4.60692 18.4222C5.03552 19.312 5.85408 19.98 6.81843 20.2293C7.15233 20.3153 7.52113 20.3626 7.99457 20.3851C8.19517 20.3938 10.2397 20.4 12.2855 20.4C14.3313 20.4 16.3771 20.3975 16.5727 20.3876C17.1209 20.3617 17.4393 20.319 17.7912 20.228C18.7618 19.9775 19.5654 19.3195 20.0027 18.4172C20.2227 17.9636 20.3342 17.5224 20.3846 16.8822C20.3956 16.7426 20.4002 14.5172 20.4002 12.2947C20.4002 10.0719 20.3952 7.85055 20.3842 7.71097C20.3332 7.06042 20.2217 6.62299 19.9947 6.16062C19.8084 5.78213 19.6016 5.49948 19.3013 5.21048C18.7654 4.69851 18.1101 4.38695 17.3291 4.27429C16.9507 4.21957 16.8754 4.20337 14.9392 4.20001H12.3028Z" fill="url(#paint2_radial_48_203267)"/>
<path d="M12.3028 4.20001C8.92117 4.20001 7.93215 4.2035 7.73991 4.21945C7.04593 4.27715 6.6141 4.38645 6.14363 4.62074C5.78108 4.80083 5.49513 5.00958 5.21293 5.3022C4.69899 5.83585 4.38751 6.49238 4.27475 7.27279C4.21994 7.65165 4.20399 7.72891 4.20075 9.66411C4.1995 10.3092 4.20075 11.1581 4.20075 12.2968C4.20075 15.6767 4.20448 16.665 4.22068 16.8569C4.27675 17.5324 4.38265 17.9573 4.60692 18.4222C5.03552 19.312 5.85408 19.98 6.81843 20.2293C7.15233 20.3153 7.52113 20.3626 7.99457 20.3851C8.19517 20.3938 10.2397 20.4 12.2855 20.4C14.3313 20.4 16.3771 20.3975 16.5727 20.3876C17.1209 20.3617 17.4393 20.319 17.7912 20.228C18.7618 19.9775 19.5654 19.3195 20.0027 18.4172C20.2227 17.9636 20.3342 17.5224 20.3846 16.8822C20.3956 16.7426 20.4002 14.5172 20.4002 12.2947C20.4002 10.0719 20.3952 7.85055 20.3842 7.71097C20.3332 7.06042 20.2217 6.62299 19.9947 6.16062C19.8084 5.78213 19.6016 5.49948 19.3013 5.21048C18.7654 4.69851 18.1101 4.38695 17.3291 4.27429C16.9507 4.21957 16.8754 4.20337 14.9392 4.20001H12.3028Z" fill="url(#paint3_radial_48_203267)"/>
<path d="M12.3031 6.28015C10.6673 6.28015 10.462 6.2873 9.81948 6.31651C9.17825 6.34586 8.74056 6.4473 8.35758 6.59614C7.96142 6.74987 7.62537 6.95551 7.29058 7.29018C6.95554 7.62473 6.74974 7.96053 6.59539 8.35626C6.44606 8.73909 6.34442 9.17658 6.31556 9.81708C6.28683 10.4591 6.2793 10.6644 6.2793 12.299C6.2793 13.9336 6.28658 14.1381 6.31568 14.7801C6.34518 15.4208 6.4467 15.8582 6.59552 16.2409C6.74949 16.6368 6.95528 16.9726 7.2902 17.3071C7.62488 17.6419 7.96092 17.8481 8.35682 18.0018C8.74005 18.1506 9.17788 18.2521 9.81898 18.2814C10.4615 18.3106 10.6666 18.3178 12.3023 18.3178C13.9383 18.3178 14.1429 18.3106 14.7854 18.2814C15.4267 18.2521 15.8648 18.1506 16.2481 18.0018C16.6441 17.8481 16.9797 17.6419 17.3143 17.3071C17.6494 16.9726 17.8552 16.6368 18.0095 16.241C18.1576 15.8582 18.2592 15.4207 18.2893 14.7802C18.3182 14.1382 18.3257 13.9336 18.3257 12.299C18.3257 10.6643 18.3182 10.4592 18.2893 9.8172C18.2592 9.17645 18.1576 8.73909 18.0095 8.35639C17.8552 7.96053 17.6494 7.62473 17.3143 7.29018C16.9793 6.95538 16.6442 6.74974 16.2477 6.59614C15.8637 6.4473 15.4258 6.34586 14.7845 6.31651C14.1421 6.2873 13.9375 6.28015 12.3012 6.28015H12.3031ZM11.7627 7.36479C11.9231 7.36454 12.1021 7.36479 12.3031 7.36479C13.9113 7.36479 14.1019 7.37056 14.737 7.3994C15.3243 7.42624 15.643 7.52429 15.8553 7.60667C16.1364 7.71576 16.3368 7.84617 16.5475 8.05683C16.7583 8.26749 16.8888 8.46812 16.9982 8.74899C17.0807 8.9609 17.1789 9.2794 17.2057 9.86624C17.2345 10.5007 17.2408 10.6913 17.2408 12.2976C17.2408 13.9038 17.2345 14.0945 17.2057 14.7289C17.1788 15.3158 17.0807 15.6343 16.9982 15.8462C16.8891 16.127 16.7583 16.3271 16.5475 16.5376C16.3367 16.7482 16.1365 16.8786 15.8553 16.9877C15.6432 17.0705 15.3243 17.1683 14.737 17.1951C14.102 17.224 13.9113 17.2302 12.3031 17.2302C10.6947 17.2302 10.5041 17.224 9.86917 17.1951C9.2819 17.1681 8.96317 17.07 8.75072 16.9876C8.46964 16.8785 8.26886 16.7481 8.05805 16.5375C7.84723 16.3268 7.71673 16.1267 7.6073 15.8457C7.52486 15.6338 7.42661 15.3153 7.39988 14.7284C7.37102 14.0939 7.36524 13.9034 7.36524 12.2961C7.36524 10.6888 7.37102 10.4992 7.39988 9.86473C7.42673 9.27789 7.52486 8.9594 7.6073 8.74724C7.71647 8.46636 7.84723 8.26573 8.05805 8.05508C8.26886 7.84441 8.46964 7.71401 8.75072 7.60467C8.96305 7.52191 9.2819 7.42411 9.86917 7.39714C10.4248 7.37206 10.6402 7.36454 11.7627 7.36328L11.7627 7.36479ZM15.5183 8.36416C15.1192 8.36416 14.7955 8.6873 14.7955 9.08617C14.7955 9.48492 15.1192 9.80843 15.5183 9.80843C15.9173 9.80843 16.2411 9.48492 16.2411 9.08617C16.2411 8.68742 15.9173 8.36392 15.5183 8.36392L15.5183 8.36416ZM12.3031 9.20805C10.5948 9.20805 9.20988 10.592 9.20988 12.299C9.20988 14.0059 10.5948 15.3892 12.3031 15.3892C14.0113 15.3892 15.3958 14.0059 15.3958 12.299C15.3958 10.592 14.0112 9.20805 12.303 9.20805H12.3031ZM12.3031 10.2927C13.4119 10.2927 14.3108 11.1909 14.3108 12.299C14.3108 13.4069 13.4119 14.3052 12.3031 14.3052C11.1942 14.3052 10.2953 13.4069 10.2953 12.299C10.2953 11.1909 11.1942 10.2927 12.3031 10.2927Z" fill="white"/>
</g>
<defs>
<radialGradient id="paint0_radial_48_203267" cx="0" cy="0" r="1" gradientUnits="userSpaceOnUse" gradientTransform="translate(19.8771 11.7932) rotate(164.25) scale(10.3509 7.45731)">
<stop stop-color="#FF005F"/>
<stop offset="1" stop-color="#FC01D8"/>
</radialGradient>
<radialGradient id="paint1_radial_48_203267" cx="0" cy="0" r="1" gradientUnits="userSpaceOnUse" gradientTransform="translate(8.5032 21.6477) rotate(-90) scale(12.9311 13.7197)">
<stop stop-color="#FFCC00"/>
<stop offset="0.1242" stop-color="#FFCC00"/>
<stop offset="0.5672" stop-color="#FE4A05"/>
<stop offset="0.6942" stop-color="#FF0F3F"/>
<stop offset="1" stop-color="#FE0657" stop-opacity="0"/>
</radialGradient>
<radialGradient id="paint2_radial_48_203267" cx="0" cy="0" r="1" gradientUnits="userSpaceOnUse" gradientTransform="translate(12.7096 20.1715) rotate(-59.8703) scale(5.34714 6.96138)">
<stop stop-color="#FFCC00"/>
<stop offset="1" stop-color="#FFCC00" stop-opacity="0"/>
</radialGradient>
<radialGradient id="paint3_radial_48_203267" cx="0" cy="0" r="1" gradientUnits="userSpaceOnUse" gradientTransform="translate(6.39819 4.85967) rotate(164.274) scale(10.2361 3.48742)">
<stop stop-color="#780CFF"/>
<stop offset="1" stop-color="#820BFF" stop-opacity="0"/>
</radialGradient>
<clipPath id="clip0_48_203267">
<rect width="16.2" height="16.2" fill="white" transform="translate(4.2002 4.20001)"/>
</clipPath>
</defs>
</svg>
