<svg width="24" height="24" viewBox="0 0 24 24" fill="none" xmlns="http://www.w3.org/2000/svg">
<rect width="24" height="24" rx="4" fill="black"/>
<path d="M12.7249 16.4361C12.2281 16.0701 11.9928 15.5341 11.9928 14.7105C11.9928 13.6777 12.3065 12.4228 12.8294 11.8737C13.1955 11.5077 13.7184 11.3377 14.4243 11.3377C15.4309 11.3377 16.6728 11.5992 17.1827 12.1352C17.5356 12.4881 17.6925 12.9718 17.6925 13.6516C17.6925 14.6321 17.418 16.0047 16.8036 16.5799C16.4506 16.8936 15.9931 17.0374 15.3263 17.0374C14.4243 17.0244 13.287 16.8152 12.7249 16.4361ZM17.1565 18.5931L17.0389 19.5343L19.6665 19.8611L20.9084 9.70364L18.2808 9.37682L18.1631 10.3573H17.8494C17.4572 9.66442 16.4114 8.72318 14.4243 8.72318C11.666 8.72318 9.62663 10.7625 9.26059 13.547C9.22137 13.8215 9.2083 14.0961 9.2083 14.3706C9.2083 17.0374 11.0123 19.2206 13.836 19.5343C13.9929 19.5474 14.1498 19.5605 14.3067 19.5474C15.4832 19.5474 16.3722 19.0376 16.8297 18.5931H17.1565ZM5.31263 4.20001L3.6001 17.8872L6.38459 18.2271L8.07097 4.5399L5.31263 4.20001Z" fill="white"/>
</svg>
