<svg width="24" height="24" viewBox="0 0 24 24" fill="none" xmlns="http://www.w3.org/2000/svg">
<rect width="24" height="24" rx="4" fill="#0A468D"/>
<path d="M14.6413 11.9297C14.5539 10.2392 13.2987 9.22254 11.7836 9.22254H11.7261C9.97714 9.22254 9.00676 10.5979 9.00676 12.1604C9.00676 13.9098 10.1806 15.0155 11.7192 15.0155C13.4349 15.0155 14.5633 13.7586 14.6447 12.2716L14.6413 11.9297ZM11.7349 7.71018C12.9035 7.71018 14.0024 8.22669 14.809 9.03517V9.03802C14.809 8.64991 15.0702 8.35757 15.4334 8.35757L15.5246 8.35641C16.0922 8.35641 16.2087 8.89359 16.2087 9.06368L16.212 15.1013C16.1714 15.4965 16.6197 15.7006 16.8682 15.4472C17.8372 14.4509 18.9969 10.3252 16.2651 7.93489C13.7186 5.70635 10.3023 6.07371 8.48562 7.32608C6.55485 8.65837 5.31879 11.6061 6.51939 14.376C7.82834 17.3965 11.5731 18.2971 13.7983 17.3982C14.9253 16.9432 15.4458 18.467 14.2754 18.9647C12.5072 19.7184 7.58421 19.6425 5.28449 15.6587C3.73069 12.9691 3.81355 8.23667 7.93419 5.78449C11.0867 3.90852 15.2427 4.42761 17.7487 7.04497C20.3684 9.78137 20.2156 14.9047 17.6608 16.8974C16.5022 17.8021 14.7835 16.9209 14.7942 15.602L14.7822 15.1711C13.9757 15.9712 12.9034 16.4377 11.7348 16.4377C9.42588 16.4377 7.39363 14.4065 7.39363 12.0974C7.39372 9.76533 9.42597 7.71027 11.7349 7.71018" fill="#F89C0E"/>
</svg>
