<svg width="24" height="24" viewBox="0 0 24 24" fill="none" xmlns="http://www.w3.org/2000/svg">
<rect width="24" height="24" rx="4" fill="#E27E35"/>
<path d="M14.1528 16.3609C15.1729 16.1283 16.1464 15.7249 17.032 15.1677C17.1937 15.066 17.3337 14.9334 17.4441 14.7776C17.5545 14.6218 17.6331 14.4457 17.6754 14.2595C17.7178 14.0733 17.723 13.8805 17.6909 13.6923C17.6588 13.504 17.5899 13.324 17.4882 13.1623C17.3864 13.0007 17.2539 12.8607 17.098 12.7503C16.9422 12.6399 16.7662 12.5613 16.5799 12.519C16.3937 12.4766 16.201 12.4714 16.0127 12.5035C15.8245 12.5356 15.6444 12.6045 15.4828 12.7062C13.4517 13.9846 10.8375 13.9825 8.80642 12.7062C8.48019 12.509 8.08956 12.4478 7.71865 12.5358C7.34773 12.6238 7.02619 12.8539 6.82326 13.1766C6.62033 13.4993 6.55224 13.8887 6.63365 14.2612C6.71505 14.6336 6.93945 14.9591 7.25851 15.1677C8.14415 15.7249 9.11764 16.1283 10.1378 16.3609L7.36868 19.1327C7.10326 19.4065 6.95616 19.7736 6.95911 20.1549C6.96207 20.5362 7.11486 20.901 7.38449 21.1706C7.65412 21.4402 8.01897 21.593 8.40025 21.5959C8.78154 21.5988 9.14867 21.4517 9.4224 21.1862L12.1465 18.4623L14.8706 21.1862C15.144 21.4535 15.5118 21.6022 15.8941 21.6C16.2764 21.5978 16.6424 21.445 16.9128 21.1747C17.1831 20.9043 17.3359 20.5383 17.3381 20.156C17.3403 19.7736 17.1916 19.4059 16.9243 19.1325L14.1528 16.3609ZM12.1465 5.30685C12.4179 5.30401 12.6871 5.35501 12.9386 5.45689C13.1901 5.55876 13.4189 5.7095 13.6118 5.90037C13.8046 6.09124 13.9577 6.31846 14.0622 6.56889C14.1667 6.81932 14.2205 7.08798 14.2205 7.35934C14.2205 7.63069 14.1667 7.89935 14.0622 8.14978C13.9577 8.40021 13.8046 8.62743 13.6118 8.8183C13.4189 9.00918 13.1901 9.15991 12.9386 9.26179C12.6871 9.36366 12.4179 9.41466 12.1465 9.41183C11.0158 9.41183 10.0928 8.49132 10.0928 7.36057C10.0936 6.81612 10.3102 6.2942 10.6952 5.90922C11.0801 5.52424 11.6021 5.30762 12.1465 5.30685ZM12.1465 12.3153C14.8807 12.3153 17.1046 10.0916 17.1046 7.3599C17.1046 4.62392 14.8807 2.40002 12.1465 2.40002C9.41232 2.40002 7.18843 4.62392 7.18843 7.35811C7.18843 10.0923 9.41232 12.316 12.1465 12.316V12.3153Z" fill="white"/>
</svg>
