<svg width="24" height="24" viewBox="0 0 24 24" fill="none" xmlns="http://www.w3.org/2000/svg">
<g clip-path="url(#clip0_48_203247)">
<rect width="24" height="24" rx="4" fill="#005BFF"/>
<path d="M18 9.60001L24.6 18V24.6H4.5L6 15.6L5.7 15V12.9L6 10.8L7.2 9.00001L9 8.10001L11.1 7.50001L12.6 7.20001L15 7.50001L16.8 8.10001L18 9.60001Z" fill="#F91158"/>
<path d="M18.4663 9.49225C18.7584 10.4354 18.5224 11.6074 17.5929 12.8011C16.6673 13.9898 15.1313 15.0734 13.1767 15.6788C11.2221 16.2842 9.34255 16.2585 7.90709 15.8011C6.46565 15.3418 5.60848 14.5083 5.31635 13.5652C5.02421 12.622 5.26026 11.45 6.18972 10.2563C7.11534 9.0676 8.65132 7.98396 10.6059 7.37857C12.5605 6.77317 14.4401 6.79892 15.8756 7.25634C17.317 7.71565 18.1742 8.54906 18.4663 9.49225Z" stroke="white" stroke-width="3"/>
</g>
<defs>
<clipPath id="clip0_48_203247">
<rect width="24" height="24" rx="4" fill="white"/>
</clipPath>
</defs>
</svg>
