<svg width="24" height="24" viewBox="0 0 24 24" fill="none" xmlns="http://www.w3.org/2000/svg">
<rect width="24" height="24" rx="4" fill="#E9E9E9"/>
<path d="M17.0773 7.20001V7.52086C16.6541 7.59602 16.3338 7.72898 16.1163 7.91974C15.8048 8.20302 15.4375 8.63659 15.1965 9.22045L10.2937 19.2273H9.96748L5.04554 9.09038C4.81631 8.57011 4.50467 8.25216 4.41063 8.13653C4.26369 7.95733 4.08295 7.81714 3.86842 7.71596C3.65389 7.61481 3.36441 7.54977 3 7.52086V7.20001H7.78918V7.52086C7.23668 7.57289 6.97327 7.66539 6.8087 7.79834C6.64413 7.93131 6.56184 8.10185 6.56184 8.30995C6.56184 8.59901 6.69703 9.04993 6.9674 9.6627L10.6023 16.5565L14.1562 9.74941C14.4324 9.07883 14.6616 8.61347 14.6616 8.35331C14.6616 8.18568 14.5764 8.02525 14.4059 7.87205C14.2355 7.71886 14.0426 7.61047 13.637 7.54687C13.6076 7.5411 13.5577 7.53243 13.4872 7.52086V7.20001H17.0773Z" fill="black"/>
<path d="M21.2943 7.20001V7.52086C20.8711 7.59602 20.5508 7.72898 20.3333 7.91974C20.0218 8.20302 19.6545 8.63659 19.4135 9.22045L15.1107 19.2273H14.7845L10.2375 9.09038C10.0083 8.57011 9.69665 8.25216 9.60261 8.13653C9.45567 7.95733 9.27493 7.81714 9.0604 7.71596C8.84587 7.61481 8.65152 7.54977 8.28711 7.52086V7.20001H12.9812V7.52086C12.4287 7.57289 12.1653 7.66539 12.0007 7.79834C11.8361 7.93131 11.7538 8.10185 11.7538 8.30995C11.7538 8.59901 11.889 9.04993 12.1594 9.6627L15.4192 16.5565L18.3731 9.74941C18.6494 9.07883 18.8786 8.61347 18.8786 8.35331C18.8786 8.18568 18.7933 8.02525 18.6229 7.87205C18.4524 7.71886 18.1644 7.61047 17.7589 7.54687C17.7295 7.5411 17.6795 7.53243 17.609 7.52086V7.20001H21.2943Z" fill="black"/>
</svg>
