<svg width="24" height="24" viewBox="0 0 24 24" fill="none" xmlns="http://www.w3.org/2000/svg">
<rect width="24" height="24" rx="4" fill="#FED42B"/>
<path d="M11.4791 20.0637C15.8703 20.0637 19.4109 16.5231 19.4109 12.1319C19.4109 7.74067 15.8703 4.20001 11.4791 4.20001C7.08786 4.20001 3.5472 7.74067 3.5472 12.1319C3.50764 16.5231 7.10764 20.0637 11.4791 20.0637Z" fill="#FED42B"/>
<path d="M8.6118 8.91694L3 16.2616L4.49436 17.9626L8.65949 12.4462L8.23026 15.4667L10.5672 16.2774L13.4128 11.7308C13.2856 12.5733 13.079 14.5287 14.939 15.1328C17.8641 16.0231 20.4236 10.761 21.6 8.09027L19.899 7.20001C18.5795 9.96617 16.5446 13.0185 15.7338 12.8118C14.9231 12.6051 15.6544 10.0139 16.1154 8.34463V8.29693L13.5241 7.40668L10.4241 12.4621L10.8533 9.69591L8.6118 8.91694Z" fill="black"/>
</svg>
