<svg width="24" height="24" viewBox="0 0 24 24" fill="none" xmlns="http://www.w3.org/2000/svg">
<rect width="24" height="24" rx="4" fill="#E9E9E9"/>
<path d="M21.2169 7.42243C21.0024 6.62572 20.3743 5.99755 19.5776 5.78305C18.122 5.40002 12.3 5.40002 12.3 5.40002C12.3 5.40002 6.47792 5.40002 5.0224 5.78305C4.2257 5.99755 3.59753 6.62572 3.38303 7.42243C3 8.87794 3 11.8962 3 11.8962C3 11.8962 3 14.9298 3.38303 16.37C3.59753 17.1667 4.2257 17.7949 5.0224 18.0094C6.47792 18.3924 12.3 18.3924 12.3 18.3924C12.3 18.3924 18.122 18.3924 19.5776 18.0094C20.3743 17.7949 21.0024 17.1667 21.2169 16.37C21.6 14.9145 21.6 11.8962 21.6 11.8962C21.6 11.8962 21.6 8.87794 21.2169 7.42243Z" fill="#EE3124"/>
<path d="M10.4307 14.7L15.2722 11.9115L10.4307 9.10773V14.7Z" fill="white"/>
</svg>
