<svg width="93" height="29" viewBox="0 0 93 29" fill="none" xmlns="http://www.w3.org/2000/svg">
<g clip-path="url(#clip0_173_870)">
<path d="M3.82742 0.999799H12.5863C13.6565 0.999799 14.6688 1.45028 15.6232 2.35126C16.5776 3.25223 17.0555 4.34319 17.057 5.62414C17.0617 5.85257 17.0187 6.07947 16.9307 6.29033C16.8427 6.50118 16.7117 6.69136 16.546 6.84869C16.4007 7.00379 16.2257 7.12807 16.0314 7.21413C15.8371 7.30019 15.6275 7.34627 15.415 7.34964C14.8406 7.34964 14.4469 7.21939 14.2339 6.9589C14.0209 6.6984 13.8171 6.216 13.6227 5.5117C13.429 4.80518 12.9974 4.45154 12.328 4.4508H4.00442C3.60292 4.4508 3.40217 4.58031 3.40217 4.83932C3.39215 5.00185 3.47342 5.1911 3.64708 5.40372L16.1553 21.3418C16.7572 22.1151 17.0585 22.9422 17.0592 23.8232C17.0592 24.8243 16.6952 25.7052 15.9671 26.466C15.2391 27.2267 14.4283 27.607 13.5348 27.607H4.46641C3.26561 27.607 2.22141 27.1498 1.3338 26.2355C0.446184 25.3212 0.000893407 24.3167 -0.0020752 23.222C-0.0020752 21.9685 0.584966 21.3414 1.75905 21.3407C1.9761 21.3376 2.19144 21.3795 2.39147 21.4638C2.59151 21.5481 2.77189 21.673 2.92126 21.8305C3.07452 21.9805 3.19599 22.1598 3.27842 22.3577C3.36086 22.5557 3.40257 22.7682 3.40106 22.9827C3.39681 23.1503 3.42759 23.317 3.49142 23.4721C3.55525 23.6271 3.65073 23.7672 3.77176 23.8833C3.89479 24.0027 4.04058 24.0962 4.20046 24.1581C4.36033 24.2201 4.53104 24.2493 4.70242 24.244H13.0716C13.4308 24.244 13.6108 24.1011 13.6116 23.8154C13.622 23.6795 13.5403 23.5048 13.3667 23.291L0.881826 7.34519C0.313607 6.64271 0.00217576 5.76732 -0.000962156 4.86381C-0.00502746 4.35885 0.0927397 3.85826 0.286497 3.39194C0.480254 2.92562 0.766026 2.50315 1.12674 2.14976C1.47237 1.78106 1.89101 1.4884 2.35599 1.29041C2.82097 1.09242 3.32209 0.993448 3.82742 0.999799Z" fill="white"/>
<path d="M37.1963 4.40299H25.2992V12.5919H30.4201C30.8638 12.5988 31.2875 12.778 31.6015 13.0918C31.9154 13.4055 32.095 13.8291 32.1021 14.2729C32.1074 14.4996 32.0666 14.725 31.9822 14.9354C31.8978 15.1459 31.7716 15.3371 31.6112 15.4974C31.4582 15.6588 31.2733 15.7867 31.0682 15.8729C30.8632 15.9592 30.6425 16.0019 30.4201 15.9984H25.2992V24.2474H37.2319C37.4516 24.2455 37.6694 24.2879 37.8723 24.372C38.0752 24.4562 38.2591 24.5804 38.413 24.7372C38.5741 24.8904 38.7016 25.0754 38.7877 25.2804C38.8737 25.4854 38.9163 25.706 38.9129 25.9283C38.9162 26.1515 38.8725 26.3729 38.7847 26.5782C38.6969 26.7834 38.5668 26.9678 38.403 27.1195C38.2441 27.2765 38.0556 27.4004 37.8485 27.4841C37.6413 27.5678 37.4197 27.6096 37.1963 27.6071H21.9451V1.00098H37.1963C37.6511 1.00618 38.0858 1.18918 38.4075 1.51081C38.7291 1.83245 38.9121 2.26719 38.9173 2.72202C38.9186 2.94346 38.874 3.16276 38.7863 3.36606C38.6985 3.56936 38.5695 3.75225 38.4075 3.90316C38.2497 4.06383 38.0611 4.19094 37.8529 4.27684C37.6448 4.36273 37.4214 4.40565 37.1963 4.40299V4.40299Z" fill="white"/>
<path d="M43.875 25.9249V0.999756H55.7631C57.1384 0.999756 58.3228 1.49997 59.3166 2.50038C59.7957 2.96518 60.1751 3.52275 60.4316 4.13906C60.688 4.75537 60.8162 5.41748 60.8083 6.08497V8.0064C60.8186 8.67465 60.6925 9.33798 60.4378 9.95585C60.183 10.5737 59.8049 11.1331 59.3266 11.5999C58.8671 12.0798 58.3136 12.46 57.7007 12.7166C57.0878 12.9733 56.4286 13.1009 55.7643 13.0916H53.6213L60.4888 24.9041C60.6904 25.2144 60.8011 25.5749 60.8083 25.9449C60.8099 26.1661 60.7642 26.385 60.6741 26.5871C60.5841 26.7891 60.4518 26.9694 60.2862 27.116C59.9716 27.4295 59.5458 27.606 59.1017 27.607C58.4338 27.607 57.9261 27.3083 57.5788 26.7108L49.7039 13.0916H47.2737V25.9249C47.2773 26.1481 47.2338 26.3696 47.1459 26.5749C47.0581 26.7801 46.9279 26.9646 46.7638 27.116C46.6047 27.2742 46.4156 27.399 46.2076 27.4833C45.9997 27.5676 45.777 27.6096 45.5526 27.607C45.3319 27.6071 45.1133 27.5637 44.9094 27.4791C44.7055 27.3946 44.5203 27.2706 44.3645 27.1144C44.2086 26.9581 44.0851 26.7725 44.0011 26.5684C43.9171 26.3643 43.8743 26.1456 43.875 25.9249ZM47.2381 9.72856H55.7676C55.988 9.72871 56.2064 9.68538 56.41 9.60105C56.6137 9.51672 56.7988 9.39306 56.9546 9.23713C57.1104 9.0812 57.234 8.89607 57.3181 8.69233C57.4023 8.4886 57.4455 8.27026 57.4452 8.04982V6.08497C57.446 5.86387 57.403 5.64481 57.3187 5.4404C57.2344 5.23599 57.1105 5.05026 56.9542 4.89392C56.7979 4.73758 56.6121 4.6137 56.4077 4.52943C56.2033 4.44516 55.9842 4.40215 55.7631 4.40289H47.2336L47.2381 9.72856Z" fill="white"/>
<path d="M65.7269 25.9249V0.999756H77.6595C79.0333 0.999756 80.2177 1.49997 81.213 2.50038C81.6921 2.96518 82.0715 3.52275 82.328 4.13906C82.5844 4.75537 82.7126 5.41748 82.7047 6.08497V12.3914C82.7012 13.7284 82.1685 15.0096 81.2231 15.955C80.2777 16.9003 78.9965 17.433 77.6595 17.4365H69.13V25.9249C69.1307 26.146 69.0877 26.365 69.0035 26.5695C68.9192 26.7739 68.7953 26.9596 68.639 27.1159C68.4826 27.2723 68.2969 27.3962 68.0925 27.4804C67.8881 27.5647 67.669 27.6077 67.4479 27.607C67.2212 27.612 66.9959 27.5711 66.7854 27.4867C66.575 27.4024 66.3838 27.2763 66.2234 27.116C66.0625 26.9628 65.9353 26.7777 65.8499 26.5727C65.7644 26.3676 65.7225 26.147 65.7269 25.9249V25.9249ZM69.13 14.0724H77.6595C77.8793 14.0745 78.0971 14.0322 78.3001 13.948C78.5031 13.8639 78.687 13.7395 78.8407 13.5825C79.0018 13.4294 79.1295 13.2444 79.2155 13.0394C79.3015 12.8344 79.3441 12.6137 79.3405 12.3914V6.08497C79.3442 5.86264 79.3016 5.64198 79.2156 5.43694C79.1296 5.2319 79.0019 5.04696 78.8407 4.89382C78.687 4.73667 78.5032 4.61218 78.3002 4.52782C78.0972 4.44346 77.8793 4.40096 77.6595 4.40289H69.13V14.0724Z" fill="white"/>
<path d="M86.5994 11.041L93.0004 14.7336L92.6397 18.6121L89.2255 16.625L82.3179 28.1502L79.625 26.6106L87.2829 15.5741L84.865 13.9733L86.5994 11.041Z" fill="#FF0035"/>
<path d="M90.9321 8.04994L90.3243 7.41763L89.545 8.09336C89.5082 8.13032 89.4633 8.15829 89.4138 8.17509C89.3644 8.19189 89.3118 8.19706 89.26 8.19021H88.2058C88.003 8.1932 87.8018 8.15442 87.6147 8.07628C87.4276 7.99814 87.2586 7.88231 87.1182 7.73601C86.9721 7.59366 86.8567 7.42297 86.779 7.23441C86.7013 7.04585 86.6629 6.84341 86.6662 6.63949V5.93036C86.6656 5.84995 86.6833 5.77045 86.718 5.69792C86.7528 5.62539 86.8036 5.56173 86.8666 5.51179L87.8017 4.71917L86.8543 3.68721C86.7328 3.56021 86.6654 3.39098 86.6662 3.2152V2.57621C86.6691 2.16936 86.8318 1.77995 87.1192 1.49194C87.4066 1.20394 87.7956 1.04041 88.2025 1.03662H89.2322C89.6396 1.03954 90.0295 1.20268 90.3176 1.49078C90.6057 1.77888 90.7689 2.16879 90.7718 2.57621V3.26307C90.7694 3.36211 90.7446 3.45932 90.6993 3.54742C90.654 3.63553 90.5893 3.71224 90.5102 3.77182L89.2856 4.81157L90.4078 6.00049L90.9276 5.5552C91.033 5.45731 91.1712 5.40249 91.315 5.40158C91.3806 5.40081 91.4456 5.41402 91.5057 5.44031C91.5658 5.46661 91.6196 5.5054 91.6635 5.55409C91.7094 5.60145 91.7455 5.65739 91.7697 5.7187C91.794 5.78002 91.8059 5.84551 91.8049 5.91144C91.8062 5.97802 91.7929 6.04407 91.7657 6.10489C91.7386 6.1657 91.6984 6.21976 91.6479 6.26322L91.1124 6.72632L91.6479 7.32969C91.7411 7.43016 91.7928 7.56222 91.7926 7.69928C91.7937 7.76497 91.781 7.83016 91.7555 7.89072C91.7301 7.95128 91.6923 8.00587 91.6446 8.05106C91.5975 8.09827 91.5414 8.13544 91.4796 8.16031C91.4178 8.18519 91.3516 8.19725 91.285 8.19578C91.2192 8.19746 91.1539 8.18535 91.0931 8.16023C91.0323 8.13512 90.9775 8.09755 90.9321 8.04994V8.04994ZM89.7543 3.06158V2.56397C89.7551 2.49606 89.7423 2.42868 89.7167 2.36579C89.6911 2.3029 89.6531 2.24575 89.6051 2.19772C89.5597 2.14715 89.5041 2.10681 89.4419 2.07936C89.3797 2.05192 89.3124 2.038 89.2444 2.03852H88.2025C88.1354 2.03878 88.0692 2.05308 88.008 2.0805C87.9469 2.10792 87.8921 2.14785 87.8473 2.19772C87.7993 2.24616 87.7613 2.3037 87.7357 2.36696C87.7101 2.43022 87.6973 2.49795 87.6982 2.56619V3.07716L88.5932 4.04233L89.7543 3.06158ZM87.6926 6.16414V6.66175C87.6917 6.72905 87.7047 6.79581 87.7307 6.85786C87.7568 6.91992 87.7953 6.97594 87.844 7.02244C87.8908 7.0698 87.9467 7.10731 88.0083 7.13274C88.0698 7.15817 88.1359 7.171 88.2025 7.17049H89.0318L89.6118 6.66286L88.5153 5.46503L87.6926 6.16414Z" fill="white"/>
</g>
<defs>
<clipPath id="clip0_173_870">
<rect width="93" height="29" fill="white"/>
</clipPath>
</defs>
</svg>
