<svg width="50" height="50" viewBox="0 0 50 50" fill="none" xmlns="http://www.w3.org/2000/svg">
<g opacity="0.8">
<path d="M38.3926 47H11.9717C11.6742 47 11.4331 46.7589 11.4331 46.4615V44.3186C11.4331 44.0212 11.6742 43.78 11.9717 43.78H38.3926C38.69 43.78 38.9312 44.0212 38.9312 44.3186V46.4615C38.9312 46.7589 38.69 47 38.3926 47Z" fill="#B9B9B9"/>
<path d="M36.6714 43.78V47.0001H38.3932C38.6906 47.0001 38.9318 46.759 38.9318 46.4615V44.3187C38.9318 44.0212 38.6906 43.7801 38.3932 43.7801H36.6714V43.78Z" fill="#B9B9B9"/>
<path d="M36.0907 40.4734H14.2739C13.9765 40.4734 13.7354 40.7145 13.7354 41.012V43.7798H36.6294V41.012C36.6293 40.7145 36.3882 40.4734 36.0907 40.4734Z" fill="#BEBEBE"/>
<path d="M34.3691 40.4734V43.7798H36.6295V41.012C36.6295 40.7146 36.3884 40.4735 36.0909 40.4735H34.3691V40.4734Z" fill="#BEBEBE"/>
<path d="M34.9024 40.4736H15.4619V26.5925C15.4619 21.2242 19.8138 16.8723 25.1821 16.8723C30.5504 16.8723 34.9023 21.2242 34.9023 26.5925V40.4736H34.9024Z" fill="#C7C7C7"/>
<path d="M25.182 16.8723C24.7996 16.8723 24.4227 16.8951 24.0518 16.9381C28.8875 17.4981 32.6418 21.6066 32.6418 26.5925V40.4736H34.9022V26.5925C34.9022 21.2242 30.5503 16.8723 25.182 16.8723V16.8723Z" fill="#C7C7C7"/>
<path d="M25.1823 32.0191C24.5487 32.0191 24.0168 31.542 23.9482 30.9122L22.9257 21.5345C22.8842 21.1533 23.1828 20.8203 23.5664 20.8203H26.7982C27.1817 20.8203 27.4804 21.1533 27.4388 21.5345L26.4165 30.9122C26.3478 31.542 25.8158 32.0191 25.1823 32.0191V32.0191Z" fill="#F6F6F6"/>
<path d="M25.1821 36.5259C25.8844 36.5259 26.4536 35.9566 26.4536 35.2544C26.4536 34.5522 25.8844 33.9829 25.1821 33.9829C24.4799 33.9829 23.9106 34.5522 23.9106 35.2544C23.9106 35.9566 24.4799 36.5259 25.1821 36.5259Z" fill="#F6F6F6"/>
<path d="M13.2022 29.2055H7.53269C7.2385 29.2055 7 28.967 7 28.6728C7 28.3786 7.2385 28.1401 7.53269 28.1401H13.2022C13.4964 28.1401 13.7349 28.3786 13.7349 28.6728C13.7349 28.967 13.4964 29.2055 13.2022 29.2055Z" fill="#C7C7C7"/>
<path d="M15.1173 20.0743C14.981 20.0743 14.8446 20.0223 14.7407 19.9183L10.7317 15.9093C10.5237 15.7013 10.5237 15.364 10.7317 15.156C10.9397 14.948 11.277 14.948 11.485 15.156L15.494 19.165C15.702 19.373 15.702 19.7103 15.494 19.9183C15.39 20.0223 15.2536 20.0743 15.1173 20.0743V20.0743Z" fill="#C7C7C7"/>
<path d="M42.8316 29.2055H37.1621C36.8678 29.2055 36.6294 28.967 36.6294 28.6728C36.6294 28.3786 36.8678 28.1401 37.1621 28.1401H42.8316C43.1259 28.1401 43.3643 28.3786 43.3643 28.6728C43.3643 28.967 43.1259 29.2055 42.8316 29.2055Z" fill="#C7C7C7"/>
<path d="M35.2466 20.0743C35.1103 20.0743 34.9739 20.0223 34.8699 19.9183C34.6619 19.7102 34.6619 19.3729 34.8699 19.165L38.8788 15.156C39.087 14.948 39.4242 14.948 39.6322 15.156C39.8402 15.3641 39.8402 15.7014 39.6322 15.9093L35.6233 19.9183C35.5193 20.0223 35.3829 20.0743 35.2466 20.0743Z" fill="#C7C7C7"/>
</g>
</svg>
