<svg width="50" height="50" viewBox="0 0 50 50" fill="none" xmlns="http://www.w3.org/2000/svg">
<g opacity="0.8" clip-path="url(#clip0_206_740)">
<path d="M50 33.3334V31.6097C50 30.7207 49.2793 30 48.3903 30H1.60967C0.720703 30 0 30.7207 0 31.6097V33.3334L3.52529 40L0 46.6667V48.3903C0 49.2794 0.720703 50 1.60967 50H48.3903C49.2793 50 50 49.2793 50 48.3903V46.6667L48.8431 40L50 33.3334Z" fill="#F8F6F6"/>
<path d="M50.0007 33.3334V31.6097C50.0007 30.7207 49.28 30 48.391 30H46.0771C46.9661 30 47.6868 30.7207 47.6868 31.6097V48.3903C47.6868 49.2793 46.9661 50 46.0771 50H48.391C49.28 50 50.0007 49.2793 50.0007 48.3903V46.6667L48.8438 40L50.0007 33.3334Z" fill="#E2E2E2"/>
<path d="M0 33.3333H50V46.6666H0V33.3333Z" fill="#C7C7C7"/>
<path d="M47.6855 33.3333H49.9994V46.6666H47.6855V33.3333Z" fill="#C7C7C7"/>
<path d="M11.7096 35.9124H8.02793C7.61113 35.9124 7.27344 36.2501 7.27344 36.6668C7.27344 37.0836 7.61123 37.4213 8.02793 37.4213H9.10674V43.3334C9.10674 43.7502 9.44453 44.0879 9.86123 44.0879C10.278 44.0879 10.6157 43.7501 10.6157 43.3334V37.4213H11.7095C12.1263 37.4213 12.464 37.0835 12.464 36.6668C12.4641 36.2501 12.1263 35.9124 11.7096 35.9124Z" fill="white"/>
<path d="M26.8988 35.9124H25.0426C24.6258 35.9124 24.2881 36.2501 24.2881 36.6668V43.3335C24.2881 43.7503 24.6259 44.088 25.0426 44.088C25.4593 44.088 25.7971 43.7502 25.7971 43.3335V41.1881C26.1901 41.1861 26.644 41.184 26.8988 41.184C28.3726 41.184 29.5715 40.0016 29.5715 38.5482C29.5715 37.0948 28.3725 35.9124 26.8988 35.9124V35.9124ZM26.8988 39.675C26.6458 39.675 26.1976 39.677 25.8059 39.6791C25.8038 39.2749 25.8018 38.8079 25.8018 38.5482C25.8018 38.3289 25.8006 37.8442 25.7994 37.4214H26.8989C27.5297 37.4214 28.0625 37.9375 28.0625 38.5482C28.0624 39.159 27.5296 39.675 26.8988 39.675V39.675Z" fill="white"/>
<path d="M18.3759 35.9124C16.1219 35.9124 14.2881 37.7461 14.2881 40.0001C14.2881 42.2542 16.1219 44.088 18.3759 44.088C20.63 44.088 22.4638 42.2542 22.4638 40.0001C22.4638 37.7461 20.63 35.9124 18.3759 35.9124V35.9124ZM18.3759 42.5791C16.954 42.5791 15.7972 41.4222 15.7972 40.0001C15.7972 38.5783 16.954 37.4214 18.3759 37.4214C19.7979 37.4214 20.9548 38.5783 20.9548 40.0001C20.9548 41.4222 19.7979 42.5791 18.3759 42.5791V42.5791Z" fill="white"/>
<path d="M35.187 35.9124H33.818C33.4012 35.9124 33.0635 36.2501 33.0635 36.6668C33.0635 37.0836 33.4013 37.4213 33.818 37.4213H34.4325V43.072C34.4325 43.4888 34.7703 43.8265 35.187 43.8265C35.6038 43.8265 35.9415 43.4887 35.9415 43.072V36.6668C35.9415 36.2501 35.6038 35.9124 35.187 35.9124Z" fill="white"/>
<path d="M40.3714 35.9124C38.9341 35.9124 37.7646 37.0818 37.7646 38.5191V41.4813C37.7646 42.9186 38.9341 44.088 40.3714 44.088C41.8087 44.088 42.9781 42.9186 42.9781 41.4813V38.5191C42.9781 37.0818 41.8087 35.9124 40.3714 35.9124ZM41.469 41.4814C41.469 42.0867 40.9767 42.5791 40.3714 42.5791C39.7661 42.5791 39.2737 42.0867 39.2737 41.4814V38.5192C39.2737 37.9139 39.7661 37.4214 40.3714 37.4214C40.9767 37.4214 41.469 37.9138 41.469 38.5192V41.4814Z" fill="white"/>
<g clip-path="url(#clip1_206_740)">
<path d="M15.3223 21.23L12.1211 18.0288L21.8239 8.32521L26.3516 12.8529L31.5794 7.62367L30.0481 6.09306L37.8787 4.52783L36.3134 12.3555L34.7806 10.8249L26.3516 19.2554L21.8239 14.7277L15.3223 21.23Z" fill="#C7C7C7"/>
<path d="M31.5789 7.62343L26.3511 12.8527L24.9922 11.4938V17.8962L26.3511 19.2551L34.7801 10.8247L36.3129 12.3553L37.8782 4.52759L30.0476 6.09281L31.5789 7.62343Z" fill="#C7C7C7"/>
</g>
</g>
<defs>
<clipPath id="clip0_206_740">
<rect width="50" height="50" fill="white"/>
</clipPath>
<clipPath id="clip1_206_740">
<rect width="25.7576" height="25.7576" fill="white" transform="translate(12.1211)"/>
</clipPath>
</defs>
</svg>
