<svg width="50" height="50" viewBox="0 0 50 50" fill="none" xmlns="http://www.w3.org/2000/svg">
<g opacity="0.8" clip-path="url(#clip0_206_778)">
<path d="M50 33.3334V31.6097C50 30.7207 49.2793 30 48.3903 30H1.60967C0.720703 30 0 30.7207 0 31.6097V33.3334L3.52529 40L0 46.6667V48.3903C0 49.2794 0.720703 50 1.60967 50H48.3903C49.2793 50 50 49.2793 50 48.3903V46.6667L48.8431 40L50 33.3334Z" fill="#F8F6F6"/>
<path d="M50.0007 33.3334V31.6097C50.0007 30.7207 49.28 30 48.391 30H46.0771C46.9661 30 47.6868 30.7207 47.6868 31.6097V48.3903C47.6868 49.2793 46.9661 50 46.0771 50H48.391C49.28 50 50.0007 49.2793 50.0007 48.3903V46.6667L48.8438 40L50.0007 33.3334Z" fill="#E2E2E2"/>
<path d="M0 33.3333H50V46.6666H0V33.3333Z" fill="#C7C7C7"/>
<path d="M47.6855 33.3333H49.9994V46.6666H47.6855V33.3333Z" fill="#C7C7C7"/>
<path d="M6.70957 35.9124H3.02793C2.61113 35.9124 2.27344 36.2501 2.27344 36.6668C2.27344 37.0836 2.61123 37.4213 3.02793 37.4213H4.10674V43.3334C4.10674 43.7502 4.44453 44.0879 4.86123 44.0879C5.27803 44.0879 5.61572 43.7501 5.61572 43.3334V37.4213H6.70947C7.12627 37.4213 7.46396 37.0835 7.46396 36.6668C7.46406 36.2501 7.12627 35.9124 6.70957 35.9124Z" fill="white"/>
<path d="M21.8988 35.9124H20.0426C19.6258 35.9124 19.2881 36.2501 19.2881 36.6668V43.3335C19.2881 43.7503 19.6259 44.088 20.0426 44.088C20.4593 44.088 20.7971 43.7502 20.7971 43.3335V41.1881C21.1901 41.1861 21.644 41.184 21.8988 41.184C23.3726 41.184 24.5715 40.0016 24.5715 38.5482C24.5715 37.0948 23.3725 35.9124 21.8988 35.9124V35.9124ZM21.8988 39.675C21.6458 39.675 21.1976 39.677 20.8059 39.6791C20.8038 39.2749 20.8018 38.8079 20.8018 38.5482C20.8018 38.3289 20.8006 37.8442 20.7994 37.4214H21.8989C22.5297 37.4214 23.0625 37.9375 23.0625 38.5482C23.0624 39.159 22.5296 39.675 21.8988 39.675V39.675Z" fill="white"/>
<path d="M13.3759 35.9124C11.1219 35.9124 9.28809 37.7461 9.28809 40.0001C9.28809 42.2542 11.1219 44.088 13.3759 44.088C15.63 44.088 17.4638 42.2542 17.4638 40.0001C17.4638 37.7461 15.63 35.9124 13.3759 35.9124V35.9124ZM13.3759 42.5791C11.954 42.5791 10.7972 41.4222 10.7972 40.0001C10.7972 38.5783 11.954 37.4214 13.3759 37.4214C14.7979 37.4214 15.9548 38.5783 15.9548 40.0001C15.9548 41.4222 14.7979 42.5791 13.3759 42.5791V42.5791Z" fill="white"/>
<path d="M30.187 35.9124H28.818C28.4012 35.9124 28.0635 36.2501 28.0635 36.6668C28.0635 37.0836 28.4013 37.4213 28.818 37.4213H29.4325V43.072C29.4325 43.4888 29.7703 43.8265 30.187 43.8265C30.6038 43.8265 30.9415 43.4887 30.9415 43.072V36.6668C30.9415 36.2501 30.6038 35.9124 30.187 35.9124Z" fill="white"/>
<path d="M35.3714 35.9124C33.9341 35.9124 32.7646 37.0818 32.7646 38.5191V41.4813C32.7646 42.9186 33.9341 44.088 35.3714 44.088C36.8087 44.088 37.9781 42.9186 37.9781 41.4813V38.5191C37.9781 37.0818 36.8087 35.9124 35.3714 35.9124ZM36.469 41.4814C36.469 42.0867 35.9767 42.5791 35.3714 42.5791C34.7661 42.5791 34.2737 42.0867 34.2737 41.4814V38.5192C34.2737 37.9139 34.7661 37.4214 35.3714 37.4214C35.9767 37.4214 36.469 37.9138 36.469 38.5192V41.4814Z" fill="white"/>
<path d="M41.6722 35.9124C40.2349 35.9124 39.0654 37.0818 39.0654 38.5191V41.4813C39.0654 42.9186 40.2349 44.088 41.6722 44.088C43.1095 44.088 44.2789 42.9186 44.2789 41.4813V38.5191C44.2789 37.0818 43.1095 35.9124 41.6722 35.9124ZM42.7698 41.4814C42.7698 42.0867 42.2774 42.5791 41.6722 42.5791C41.0669 42.5791 40.5745 42.0867 40.5745 41.4814V38.5192C40.5745 37.9139 41.0669 37.4214 41.6722 37.4214C42.2774 37.4214 42.7698 37.9138 42.7698 38.5192V41.4814Z" fill="white"/>
<g clip-path="url(#clip1_206_778)">
<path d="M15.3223 21.23L12.1211 18.0288L21.8239 8.32521L26.3516 12.8529L31.5794 7.62367L30.0481 6.09306L37.8787 4.52783L36.3134 12.3555L34.7806 10.8249L26.3516 19.2554L21.8239 14.7277L15.3223 21.23Z" fill="#C7C7C7"/>
<path d="M31.5789 7.62343L26.3511 12.8527L24.9922 11.4938V17.8962L26.3511 19.2551L34.7801 10.8247L36.3129 12.3553L37.8782 4.52759L30.0476 6.09281L31.5789 7.62343Z" fill="#C7C7C7"/>
</g>
</g>
<defs>
<clipPath id="clip0_206_778">
<rect width="50" height="50" fill="white"/>
</clipPath>
<clipPath id="clip1_206_778">
<rect width="25.7576" height="25.7576" fill="white" transform="translate(12.1211)"/>
</clipPath>
</defs>
</svg>
