<svg width="50" height="50" viewBox="0 0 50 50" fill="none" xmlns="http://www.w3.org/2000/svg">
<g opacity="0.8" clip-path="url(#clip0_206_720)">
<path d="M50 33.3334V31.6097C50 30.7207 49.2793 30 48.3903 30H1.60967C0.720703 30 0 30.7207 0 31.6097V33.3334L3.52529 40L0 46.6667V48.3903C0 49.2794 0.720703 50 1.60967 50H48.3903C49.2793 50 50 49.2793 50 48.3903V46.6667L48.8431 40L50 33.3334Z" fill="#F8F6F6"/>
<path d="M50.0007 33.3334V31.6097C50.0007 30.7207 49.28 30 48.391 30H46.0771C46.9661 30 47.6868 30.7207 47.6868 31.6097V48.3903C47.6868 49.2793 46.9661 50 46.0771 50H48.391C49.28 50 50.0007 49.2793 50.0007 48.3903V46.6667L48.8438 40L50.0007 33.3334Z" fill="#E2E2E2"/>
<path d="M0 33.3333H50V46.6666H0V33.3333Z" fill="#C7C7C7"/>
<path d="M47.6855 33.3333H49.9994V46.6666H47.6855V33.3333Z" fill="#C7C7C7"/>
<path d="M7.46641 35.9124H3.78477C3.36797 35.9124 3.03027 36.2501 3.03027 36.6668C3.03027 37.0836 3.36807 37.4213 3.78477 37.4213H4.86357V43.3334C4.86357 43.7502 5.20137 44.0879 5.61807 44.0879C6.03486 44.0879 6.37256 43.7501 6.37256 43.3334V37.4213H7.46631C7.8831 37.4213 8.2208 37.0835 8.2208 36.6668C8.2209 36.2501 7.8831 35.9124 7.46641 35.9124Z" fill="white"/>
<path d="M22.6566 35.9124H20.8004C20.3836 35.9124 20.0459 36.2501 20.0459 36.6668V43.3335C20.0459 43.7503 20.3837 44.088 20.8004 44.088C21.2171 44.088 21.5549 43.7502 21.5549 43.3335V41.1881C21.9479 41.1861 22.4019 41.184 22.6566 41.184C24.1304 41.184 25.3293 40.0016 25.3293 38.5482C25.3293 37.0948 24.1303 35.9124 22.6566 35.9124V35.9124ZM22.6566 39.675C22.4036 39.675 21.9554 39.677 21.5637 39.6791C21.5616 39.2749 21.5596 38.8079 21.5596 38.5482C21.5596 38.3289 21.5584 37.8442 21.5572 37.4214H22.6567C23.2875 37.4214 23.8203 37.9375 23.8203 38.5482C23.8202 39.159 23.2874 39.675 22.6566 39.675V39.675Z" fill="white"/>
<path d="M14.1327 35.9124C11.8787 35.9124 10.0449 37.7461 10.0449 40.0001C10.0449 42.2542 11.8787 44.088 14.1327 44.088C16.3868 44.088 18.2206 42.2542 18.2206 40.0001C18.2206 37.7461 16.3868 35.9124 14.1327 35.9124V35.9124ZM14.1327 42.5791C12.7108 42.5791 11.554 41.4222 11.554 40.0001C11.554 38.5783 12.7108 37.4214 14.1327 37.4214C15.5547 37.4214 16.7116 38.5783 16.7116 40.0001C16.7116 41.4222 15.5548 42.5791 14.1327 42.5791V42.5791Z" fill="white"/>
<path d="M30.9438 35.9124H29.5748C29.158 35.9124 28.8203 36.2501 28.8203 36.6668C28.8203 37.0836 29.1581 37.4213 29.5748 37.4213H30.1894V43.072C30.1894 43.4888 30.5271 43.8265 30.9438 43.8265C31.3606 43.8265 31.6983 43.4887 31.6983 43.072V36.6668C31.6983 36.2501 31.3606 35.9124 30.9438 35.9124Z" fill="white"/>
<path d="M36.1292 35.9124C34.6919 35.9124 33.5225 37.0818 33.5225 38.5191V41.4813C33.5225 42.9186 34.6919 44.088 36.1292 44.088C37.5665 44.088 38.7359 42.9186 38.7359 41.4813V38.5191C38.7359 37.0818 37.5665 35.9124 36.1292 35.9124ZM37.2269 41.4814C37.2269 42.0867 36.7345 42.5791 36.1292 42.5791C35.5239 42.5791 35.0315 42.0867 35.0315 41.4814V38.5192C35.0315 37.9139 35.5239 37.4214 36.1292 37.4214C36.7345 37.4214 37.2269 37.9138 37.2269 38.5192V41.4814Z" fill="white"/>
<path d="M42.429 35.9124C40.9917 35.9124 39.8223 37.0818 39.8223 38.5191V41.4813C39.8223 42.9186 40.9917 44.088 42.429 44.088C43.8663 44.088 45.0357 42.9186 45.0357 41.4813V38.5191C45.0357 37.0818 43.8663 35.9124 42.429 35.9124ZM43.5267 41.4814C43.5267 42.0867 43.0343 42.5791 42.429 42.5791C41.8237 42.5791 41.3313 42.0867 41.3313 41.4814V38.5192C41.3313 37.9139 41.8237 37.4214 42.429 37.4214C43.0343 37.4214 43.5267 37.9138 43.5267 38.5192V41.4814Z" fill="white"/>
<g clip-path="url(#clip1_206_720)">
<path d="M15.3223 4.52756L12.1211 7.72879L21.8239 17.4324L26.3516 12.9047L31.5794 18.1339L30.0481 19.6645L37.8787 21.2297L36.3134 13.402L34.7806 14.9327L26.3516 6.50219L21.8239 11.0299L15.3223 4.52756Z" fill="#C7C7C7"/>
<path d="M31.5789 18.1341L26.3511 12.9049L24.9922 14.2638V7.86135L26.3511 6.50243L34.7801 14.9329L36.3129 13.4023L37.8782 21.23L30.0476 19.6648L31.5789 18.1341Z" fill="#C7C7C7"/>
</g>
</g>
<defs>
<clipPath id="clip0_206_720">
<rect width="50" height="50" fill="white"/>
</clipPath>
<clipPath id="clip1_206_720">
<rect width="25.7576" height="25.7576" fill="white" transform="matrix(1 0 0 -1 12.1211 25.7576)"/>
</clipPath>
</defs>
</svg>
