<svg width="50" height="50" viewBox="0 0 50 50" fill="none" xmlns="http://www.w3.org/2000/svg">
<g opacity="0.8" clip-path="url(#clip0_206_759)">
<path d="M15.3223 4.52756L12.1211 7.72879L21.8239 17.4324L26.3516 12.9047L31.5794 18.1339L30.0481 19.6645L37.8787 21.2297L36.3134 13.402L34.7806 14.9327L26.3516 6.50219L21.8239 11.0299L15.3223 4.52756Z" fill="#C7C7C7"/>
<path d="M31.5789 18.1341L26.3511 12.9049L24.9922 14.2638V7.86135L26.3511 6.50243L34.7801 14.9329L36.3129 13.4023L37.8782 21.23L30.0476 19.6648L31.5789 18.1341Z" fill="#C7C7C7"/>
<path d="M50 33.3334V31.6097C50 30.7207 49.2793 30 48.3903 30H1.60967C0.720703 30 0 30.7207 0 31.6097V33.3334L3.52529 40L0 46.6667V48.3903C0 49.2794 0.720703 50 1.60967 50H48.3903C49.2793 50 50 49.2793 50 48.3903V46.6667L48.8431 40L50 33.3334Z" fill="#F8F6F6"/>
<path d="M50.0007 33.3334V31.6097C50.0007 30.7207 49.28 30 48.391 30H46.0771C46.9661 30 47.6868 30.7207 47.6868 31.6097V48.3903C47.6868 49.2793 46.9661 50 46.0771 50H48.391C49.28 50 50.0007 49.2793 50.0007 48.3903V46.6667L48.8438 40L50.0007 33.3334Z" fill="#E2E2E2"/>
<path d="M0 33.3333H50V46.6666H0V33.3333Z" fill="#C7C7C7"/>
<path d="M47.6855 33.3333H49.9994V46.6666H47.6855V33.3333Z" fill="#C7C7C7"/>
<path d="M11.5836 35.9124H7.90195C7.48516 35.9124 7.14746 36.2501 7.14746 36.6668C7.14746 37.0836 7.48525 37.4213 7.90195 37.4213H8.98076V43.3334C8.98076 43.7502 9.31855 44.0879 9.73525 44.0879C10.1521 44.0879 10.4897 43.7501 10.4897 43.3334V37.4213H11.5835C12.0003 37.4213 12.338 37.0835 12.338 36.6668C12.3381 36.2501 12.0003 35.9124 11.5836 35.9124Z" fill="white"/>
<path d="M26.7729 35.9124H24.9166C24.4998 35.9124 24.1621 36.2501 24.1621 36.6668V43.3335C24.1621 43.7503 24.4999 44.088 24.9166 44.088C25.3333 44.088 25.6711 43.7502 25.6711 43.3335V41.1881C26.0642 41.1861 26.5181 41.184 26.7729 41.184C28.2466 41.184 29.4455 40.0016 29.4455 38.5482C29.4455 37.0948 28.2465 35.9124 26.7729 35.9124V35.9124ZM26.7729 39.675C26.5198 39.675 26.0716 39.677 25.6799 39.6791C25.6778 39.2749 25.6758 38.8079 25.6758 38.5482C25.6758 38.3289 25.6746 37.8442 25.6734 37.4214H26.7729C27.4037 37.4214 27.9365 37.9375 27.9365 38.5482C27.9364 39.159 27.4036 39.675 26.7729 39.675V39.675Z" fill="white"/>
<path d="M18.2499 35.9124C15.9959 35.9124 14.1621 37.7461 14.1621 40.0001C14.1621 42.2542 15.9959 44.088 18.2499 44.088C20.504 44.088 22.3378 42.2542 22.3378 40.0001C22.3378 37.7461 20.504 35.9124 18.2499 35.9124V35.9124ZM18.2499 42.5791C16.828 42.5791 15.6712 41.4222 15.6712 40.0001C15.6712 38.5783 16.828 37.4214 18.2499 37.4214C19.6719 37.4214 20.8288 38.5783 20.8288 40.0001C20.8288 41.4222 19.672 42.5791 18.2499 42.5791V42.5791Z" fill="white"/>
<path d="M35.061 35.9124H33.692C33.2752 35.9124 32.9375 36.2501 32.9375 36.6668C32.9375 37.0836 33.2753 37.4213 33.692 37.4213H34.3065V43.072C34.3065 43.4888 34.6443 43.8265 35.061 43.8265C35.4778 43.8265 35.8155 43.4887 35.8155 43.072V36.6668C35.8155 36.2501 35.4778 35.9124 35.061 35.9124Z" fill="white"/>
<path d="M40.2454 35.9124C38.8081 35.9124 37.6387 37.0818 37.6387 38.5191V41.4813C37.6387 42.9186 38.8081 44.088 40.2454 44.088C41.6827 44.088 42.8522 42.9186 42.8522 41.4813V38.5191C42.8522 37.0818 41.6827 35.9124 40.2454 35.9124ZM41.3431 41.4814C41.3431 42.0867 40.8507 42.5791 40.2454 42.5791C39.6401 42.5791 39.1478 42.0867 39.1478 41.4814V38.5192C39.1478 37.9139 39.6401 37.4214 40.2454 37.4214C40.8507 37.4214 41.3431 37.9138 41.3431 38.5192V41.4814Z" fill="white"/>
</g>
<defs>
<clipPath id="clip0_206_759">
<rect width="50" height="50" fill="white"/>
</clipPath>
</defs>
</svg>
